<?xml version="1.0" encoding="utf-8"?>
<svg width="424" height="424" viewBox="0 0 424 424"
		 xmlns="http://www.w3.org/2000/svg" xmlns:xlink="http://www.w3.org/1999/xlink" xmlns:ev="http://www.w3.org/2001/xml-events">
<rect x="0" y="0" width="424" height="424" fill="#ffffff"/>
<defs>
<rect id="p" width="8" height="8"/>
</defs>
<g fill="#000000">
<use xlink:href="#p" x="32" y="32"/>
<use xlink:href="#p" x="32" y="40"/>
<use xlink:href="#p" x="32" y="48"/>
<use xlink:href="#p" x="32" y="56"/>
<use xlink:href="#p" x="32" y="64"/>
<use xlink:href="#p" x="32" y="72"/>
<use xlink:href="#p" x="32" y="80"/>
<use xlink:href="#p" x="32" y="104"/>
<use xlink:href="#p" x="32" y="120"/>
<use xlink:href="#p" x="32" y="136"/>
<use xlink:href="#p" x="32" y="144"/>
<use xlink:href="#p" x="32" y="160"/>
<use xlink:href="#p" x="32" y="184"/>
<use xlink:href="#p" x="32" y="192"/>
<use xlink:href="#p" x="32" y="224"/>
<use xlink:href="#p" x="32" y="248"/>
<use xlink:href="#p" x="32" y="256"/>
<use xlink:href="#p" x="32" y="264"/>
<use xlink:href="#p" x="32" y="280"/>
<use xlink:href="#p" x="32" y="296"/>
<use xlink:href="#p" x="32" y="320"/>
<use xlink:href="#p" x="32" y="336"/>
<use xlink:href="#p" x="32" y="344"/>
<use xlink:href="#p" x="32" y="352"/>
<use xlink:href="#p" x="32" y="360"/>
<use xlink:href="#p" x="32" y="368"/>
<use xlink:href="#p" x="32" y="376"/>
<use xlink:href="#p" x="32" y="384"/>
<use xlink:href="#p" x="40" y="32"/>
<use xlink:href="#p" x="40" y="80"/>
<use xlink:href="#p" x="40" y="112"/>
<use xlink:href="#p" x="40" y="120"/>
<use xlink:href="#p" x="40" y="136"/>
<use xlink:href="#p" x="40" y="160"/>
<use xlink:href="#p" x="40" y="184"/>
<use xlink:href="#p" x="40" y="216"/>
<use xlink:href="#p" x="40" y="232"/>
<use xlink:href="#p" x="40" y="248"/>
<use xlink:href="#p" x="40" y="280"/>
<use xlink:href="#p" x="40" y="288"/>
<use xlink:href="#p" x="40" y="312"/>
<use xlink:href="#p" x="40" y="336"/>
<use xlink:href="#p" x="40" y="384"/>
<use xlink:href="#p" x="48" y="32"/>
<use xlink:href="#p" x="48" y="48"/>
<use xlink:href="#p" x="48" y="56"/>
<use xlink:href="#p" x="48" y="64"/>
<use xlink:href="#p" x="48" y="80"/>
<use xlink:href="#p" x="48" y="104"/>
<use xlink:href="#p" x="48" y="112"/>
<use xlink:href="#p" x="48" y="120"/>
<use xlink:href="#p" x="48" y="152"/>
<use xlink:href="#p" x="48" y="168"/>
<use xlink:href="#p" x="48" y="200"/>
<use xlink:href="#p" x="48" y="208"/>
<use xlink:href="#p" x="48" y="216"/>
<use xlink:href="#p" x="48" y="224"/>
<use xlink:href="#p" x="48" y="248"/>
<use xlink:href="#p" x="48" y="296"/>
<use xlink:href="#p" x="48" y="312"/>
<use xlink:href="#p" x="48" y="336"/>
<use xlink:href="#p" x="48" y="352"/>
<use xlink:href="#p" x="48" y="360"/>
<use xlink:href="#p" x="48" y="368"/>
<use xlink:href="#p" x="48" y="384"/>
<use xlink:href="#p" x="56" y="32"/>
<use xlink:href="#p" x="56" y="48"/>
<use xlink:href="#p" x="56" y="56"/>
<use xlink:href="#p" x="56" y="64"/>
<use xlink:href="#p" x="56" y="80"/>
<use xlink:href="#p" x="56" y="96"/>
<use xlink:href="#p" x="56" y="104"/>
<use xlink:href="#p" x="56" y="112"/>
<use xlink:href="#p" x="56" y="128"/>
<use xlink:href="#p" x="56" y="144"/>
<use xlink:href="#p" x="56" y="168"/>
<use xlink:href="#p" x="56" y="176"/>
<use xlink:href="#p" x="56" y="184"/>
<use xlink:href="#p" x="56" y="200"/>
<use xlink:href="#p" x="56" y="224"/>
<use xlink:href="#p" x="56" y="232"/>
<use xlink:href="#p" x="56" y="256"/>
<use xlink:href="#p" x="56" y="272"/>
<use xlink:href="#p" x="56" y="296"/>
<use xlink:href="#p" x="56" y="312"/>
<use xlink:href="#p" x="56" y="320"/>
<use xlink:href="#p" x="56" y="336"/>
<use xlink:href="#p" x="56" y="352"/>
<use xlink:href="#p" x="56" y="360"/>
<use xlink:href="#p" x="56" y="368"/>
<use xlink:href="#p" x="56" y="384"/>
<use xlink:href="#p" x="64" y="32"/>
<use xlink:href="#p" x="64" y="48"/>
<use xlink:href="#p" x="64" y="56"/>
<use xlink:href="#p" x="64" y="64"/>
<use xlink:href="#p" x="64" y="80"/>
<use xlink:href="#p" x="64" y="112"/>
<use xlink:href="#p" x="64" y="120"/>
<use xlink:href="#p" x="64" y="144"/>
<use xlink:href="#p" x="64" y="152"/>
<use xlink:href="#p" x="64" y="160"/>
<use xlink:href="#p" x="64" y="184"/>
<use xlink:href="#p" x="64" y="192"/>
<use xlink:href="#p" x="64" y="200"/>
<use xlink:href="#p" x="64" y="208"/>
<use xlink:href="#p" x="64" y="216"/>
<use xlink:href="#p" x="64" y="224"/>
<use xlink:href="#p" x="64" y="248"/>
<use xlink:href="#p" x="64" y="256"/>
<use xlink:href="#p" x="64" y="264"/>
<use xlink:href="#p" x="64" y="272"/>
<use xlink:href="#p" x="64" y="296"/>
<use xlink:href="#p" x="64" y="304"/>
<use xlink:href="#p" x="64" y="312"/>
<use xlink:href="#p" x="64" y="320"/>
<use xlink:href="#p" x="64" y="336"/>
<use xlink:href="#p" x="64" y="352"/>
<use xlink:href="#p" x="64" y="360"/>
<use xlink:href="#p" x="64" y="368"/>
<use xlink:href="#p" x="64" y="384"/>
<use xlink:href="#p" x="72" y="32"/>
<use xlink:href="#p" x="72" y="80"/>
<use xlink:href="#p" x="72" y="104"/>
<use xlink:href="#p" x="72" y="112"/>
<use xlink:href="#p" x="72" y="128"/>
<use xlink:href="#p" x="72" y="136"/>
<use xlink:href="#p" x="72" y="144"/>
<use xlink:href="#p" x="72" y="152"/>
<use xlink:href="#p" x="72" y="184"/>
<use xlink:href="#p" x="72" y="192"/>
<use xlink:href="#p" x="72" y="224"/>
<use xlink:href="#p" x="72" y="248"/>
<use xlink:href="#p" x="72" y="264"/>
<use xlink:href="#p" x="72" y="272"/>
<use xlink:href="#p" x="72" y="288"/>
<use xlink:href="#p" x="72" y="296"/>
<use xlink:href="#p" x="72" y="336"/>
<use xlink:href="#p" x="72" y="384"/>
<use xlink:href="#p" x="80" y="32"/>
<use xlink:href="#p" x="80" y="40"/>
<use xlink:href="#p" x="80" y="48"/>
<use xlink:href="#p" x="80" y="56"/>
<use xlink:href="#p" x="80" y="64"/>
<use xlink:href="#p" x="80" y="72"/>
<use xlink:href="#p" x="80" y="80"/>
<use xlink:href="#p" x="80" y="96"/>
<use xlink:href="#p" x="80" y="112"/>
<use xlink:href="#p" x="80" y="128"/>
<use xlink:href="#p" x="80" y="144"/>
<use xlink:href="#p" x="80" y="160"/>
<use xlink:href="#p" x="80" y="176"/>
<use xlink:href="#p" x="80" y="192"/>
<use xlink:href="#p" x="80" y="208"/>
<use xlink:href="#p" x="80" y="224"/>
<use xlink:href="#p" x="80" y="240"/>
<use xlink:href="#p" x="80" y="256"/>
<use xlink:href="#p" x="80" y="272"/>
<use xlink:href="#p" x="80" y="288"/>
<use xlink:href="#p" x="80" y="304"/>
<use xlink:href="#p" x="80" y="320"/>
<use xlink:href="#p" x="80" y="336"/>
<use xlink:href="#p" x="80" y="344"/>
<use xlink:href="#p" x="80" y="352"/>
<use xlink:href="#p" x="80" y="360"/>
<use xlink:href="#p" x="80" y="368"/>
<use xlink:href="#p" x="80" y="376"/>
<use xlink:href="#p" x="80" y="384"/>
<use xlink:href="#p" x="88" y="112"/>
<use xlink:href="#p" x="88" y="144"/>
<use xlink:href="#p" x="88" y="168"/>
<use xlink:href="#p" x="88" y="176"/>
<use xlink:href="#p" x="88" y="192"/>
<use xlink:href="#p" x="88" y="224"/>
<use xlink:href="#p" x="88" y="248"/>
<use xlink:href="#p" x="88" y="256"/>
<use xlink:href="#p" x="88" y="272"/>
<use xlink:href="#p" x="88" y="280"/>
<use xlink:href="#p" x="88" y="312"/>
<use xlink:href="#p" x="88" y="320"/>
<use xlink:href="#p" x="96" y="32"/>
<use xlink:href="#p" x="96" y="40"/>
<use xlink:href="#p" x="96" y="56"/>
<use xlink:href="#p" x="96" y="64"/>
<use xlink:href="#p" x="96" y="72"/>
<use xlink:href="#p" x="96" y="80"/>
<use xlink:href="#p" x="96" y="104"/>
<use xlink:href="#p" x="96" y="112"/>
<use xlink:href="#p" x="96" y="128"/>
<use xlink:href="#p" x="96" y="144"/>
<use xlink:href="#p" x="96" y="160"/>
<use xlink:href="#p" x="96" y="168"/>
<use xlink:href="#p" x="96" y="192"/>
<use xlink:href="#p" x="96" y="200"/>
<use xlink:href="#p" x="96" y="208"/>
<use xlink:href="#p" x="96" y="216"/>
<use xlink:href="#p" x="96" y="224"/>
<use xlink:href="#p" x="96" y="232"/>
<use xlink:href="#p" x="96" y="264"/>
<use xlink:href="#p" x="96" y="304"/>
<use xlink:href="#p" x="96" y="312"/>
<use xlink:href="#p" x="96" y="328"/>
<use xlink:href="#p" x="96" y="360"/>
<use xlink:href="#p" x="104" y="32"/>
<use xlink:href="#p" x="104" y="40"/>
<use xlink:href="#p" x="104" y="48"/>
<use xlink:href="#p" x="104" y="96"/>
<use xlink:href="#p" x="104" y="104"/>
<use xlink:href="#p" x="104" y="112"/>
<use xlink:href="#p" x="104" y="128"/>
<use xlink:href="#p" x="104" y="152"/>
<use xlink:href="#p" x="104" y="160"/>
<use xlink:href="#p" x="104" y="176"/>
<use xlink:href="#p" x="104" y="192"/>
<use xlink:href="#p" x="104" y="200"/>
<use xlink:href="#p" x="104" y="208"/>
<use xlink:href="#p" x="104" y="240"/>
<use xlink:href="#p" x="104" y="256"/>
<use xlink:href="#p" x="104" y="264"/>
<use xlink:href="#p" x="104" y="280"/>
<use xlink:href="#p" x="104" y="304"/>
<use xlink:href="#p" x="104" y="312"/>
<use xlink:href="#p" x="104" y="320"/>
<use xlink:href="#p" x="104" y="328"/>
<use xlink:href="#p" x="104" y="336"/>
<use xlink:href="#p" x="104" y="352"/>
<use xlink:href="#p" x="104" y="384"/>
<use xlink:href="#p" x="112" y="40"/>
<use xlink:href="#p" x="112" y="64"/>
<use xlink:href="#p" x="112" y="72"/>
<use xlink:href="#p" x="112" y="80"/>
<use xlink:href="#p" x="112" y="104"/>
<use xlink:href="#p" x="112" y="120"/>
<use xlink:href="#p" x="112" y="128"/>
<use xlink:href="#p" x="112" y="136"/>
<use xlink:href="#p" x="112" y="160"/>
<use xlink:href="#p" x="112" y="208"/>
<use xlink:href="#p" x="112" y="216"/>
<use xlink:href="#p" x="112" y="240"/>
<use xlink:href="#p" x="112" y="288"/>
<use xlink:href="#p" x="112" y="296"/>
<use xlink:href="#p" x="112" y="312"/>
<use xlink:href="#p" x="112" y="320"/>
<use xlink:href="#p" x="112" y="328"/>
<use xlink:href="#p" x="112" y="352"/>
<use xlink:href="#p" x="112" y="368"/>
<use xlink:href="#p" x="112" y="376"/>
<use xlink:href="#p" x="120" y="48"/>
<use xlink:href="#p" x="120" y="96"/>
<use xlink:href="#p" x="120" y="112"/>
<use xlink:href="#p" x="120" y="152"/>
<use xlink:href="#p" x="120" y="168"/>
<use xlink:href="#p" x="120" y="176"/>
<use xlink:href="#p" x="120" y="192"/>
<use xlink:href="#p" x="120" y="200"/>
<use xlink:href="#p" x="120" y="208"/>
<use xlink:href="#p" x="120" y="232"/>
<use xlink:href="#p" x="120" y="248"/>
<use xlink:href="#p" x="120" y="256"/>
<use xlink:href="#p" x="120" y="264"/>
<use xlink:href="#p" x="120" y="272"/>
<use xlink:href="#p" x="120" y="280"/>
<use xlink:href="#p" x="120" y="304"/>
<use xlink:href="#p" x="120" y="312"/>
<use xlink:href="#p" x="120" y="336"/>
<use xlink:href="#p" x="120" y="352"/>
<use xlink:href="#p" x="120" y="360"/>
<use xlink:href="#p" x="120" y="384"/>
<use xlink:href="#p" x="128" y="32"/>
<use xlink:href="#p" x="128" y="48"/>
<use xlink:href="#p" x="128" y="56"/>
<use xlink:href="#p" x="128" y="80"/>
<use xlink:href="#p" x="128" y="96"/>
<use xlink:href="#p" x="128" y="128"/>
<use xlink:href="#p" x="128" y="136"/>
<use xlink:href="#p" x="128" y="176"/>
<use xlink:href="#p" x="128" y="192"/>
<use xlink:href="#p" x="128" y="224"/>
<use xlink:href="#p" x="128" y="264"/>
<use xlink:href="#p" x="128" y="312"/>
<use xlink:href="#p" x="128" y="328"/>
<use xlink:href="#p" x="128" y="344"/>
<use xlink:href="#p" x="128" y="352"/>
<use xlink:href="#p" x="128" y="376"/>
<use xlink:href="#p" x="136" y="40"/>
<use xlink:href="#p" x="136" y="64"/>
<use xlink:href="#p" x="136" y="72"/>
<use xlink:href="#p" x="136" y="120"/>
<use xlink:href="#p" x="136" y="128"/>
<use xlink:href="#p" x="136" y="152"/>
<use xlink:href="#p" x="136" y="160"/>
<use xlink:href="#p" x="136" y="168"/>
<use xlink:href="#p" x="136" y="176"/>
<use xlink:href="#p" x="136" y="184"/>
<use xlink:href="#p" x="136" y="192"/>
<use xlink:href="#p" x="136" y="200"/>
<use xlink:href="#p" x="136" y="208"/>
<use xlink:href="#p" x="136" y="216"/>
<use xlink:href="#p" x="136" y="256"/>
<use xlink:href="#p" x="136" y="264"/>
<use xlink:href="#p" x="136" y="272"/>
<use xlink:href="#p" x="136" y="288"/>
<use xlink:href="#p" x="136" y="296"/>
<use xlink:href="#p" x="136" y="320"/>
<use xlink:href="#p" x="136" y="328"/>
<use xlink:href="#p" x="136" y="336"/>
<use xlink:href="#p" x="136" y="344"/>
<use xlink:href="#p" x="136" y="376"/>
<use xlink:href="#p" x="136" y="384"/>
<use xlink:href="#p" x="144" y="32"/>
<use xlink:href="#p" x="144" y="40"/>
<use xlink:href="#p" x="144" y="56"/>
<use xlink:href="#p" x="144" y="72"/>
<use xlink:href="#p" x="144" y="80"/>
<use xlink:href="#p" x="144" y="104"/>
<use xlink:href="#p" x="144" y="120"/>
<use xlink:href="#p" x="144" y="176"/>
<use xlink:href="#p" x="144" y="184"/>
<use xlink:href="#p" x="144" y="248"/>
<use xlink:href="#p" x="144" y="264"/>
<use xlink:href="#p" x="144" y="272"/>
<use xlink:href="#p" x="144" y="280"/>
<use xlink:href="#p" x="144" y="288"/>
<use xlink:href="#p" x="144" y="296"/>
<use xlink:href="#p" x="144" y="304"/>
<use xlink:href="#p" x="144" y="320"/>
<use xlink:href="#p" x="144" y="344"/>
<use xlink:href="#p" x="144" y="352"/>
<use xlink:href="#p" x="144" y="368"/>
<use xlink:href="#p" x="144" y="376"/>
<use xlink:href="#p" x="152" y="40"/>
<use xlink:href="#p" x="152" y="72"/>
<use xlink:href="#p" x="152" y="96"/>
<use xlink:href="#p" x="152" y="104"/>
<use xlink:href="#p" x="152" y="112"/>
<use xlink:href="#p" x="152" y="136"/>
<use xlink:href="#p" x="152" y="160"/>
<use xlink:href="#p" x="152" y="192"/>
<use xlink:href="#p" x="152" y="200"/>
<use xlink:href="#p" x="152" y="240"/>
<use xlink:href="#p" x="152" y="256"/>
<use xlink:href="#p" x="152" y="296"/>
<use xlink:href="#p" x="152" y="304"/>
<use xlink:href="#p" x="152" y="312"/>
<use xlink:href="#p" x="152" y="320"/>
<use xlink:href="#p" x="152" y="328"/>
<use xlink:href="#p" x="152" y="336"/>
<use xlink:href="#p" x="152" y="344"/>
<use xlink:href="#p" x="152" y="360"/>
<use xlink:href="#p" x="152" y="368"/>
<use xlink:href="#p" x="152" y="376"/>
<use xlink:href="#p" x="160" y="32"/>
<use xlink:href="#p" x="160" y="40"/>
<use xlink:href="#p" x="160" y="48"/>
<use xlink:href="#p" x="160" y="80"/>
<use xlink:href="#p" x="160" y="112"/>
<use xlink:href="#p" x="160" y="128"/>
<use xlink:href="#p" x="160" y="136"/>
<use xlink:href="#p" x="160" y="144"/>
<use xlink:href="#p" x="160" y="160"/>
<use xlink:href="#p" x="160" y="168"/>
<use xlink:href="#p" x="160" y="176"/>
<use xlink:href="#p" x="160" y="200"/>
<use xlink:href="#p" x="160" y="208"/>
<use xlink:href="#p" x="160" y="232"/>
<use xlink:href="#p" x="160" y="240"/>
<use xlink:href="#p" x="160" y="256"/>
<use xlink:href="#p" x="160" y="264"/>
<use xlink:href="#p" x="160" y="296"/>
<use xlink:href="#p" x="160" y="336"/>
<use xlink:href="#p" x="160" y="352"/>
<use xlink:href="#p" x="160" y="376"/>
<use xlink:href="#p" x="168" y="64"/>
<use xlink:href="#p" x="168" y="72"/>
<use xlink:href="#p" x="168" y="88"/>
<use xlink:href="#p" x="168" y="112"/>
<use xlink:href="#p" x="168" y="136"/>
<use xlink:href="#p" x="168" y="168"/>
<use xlink:href="#p" x="168" y="200"/>
<use xlink:href="#p" x="168" y="224"/>
<use xlink:href="#p" x="168" y="232"/>
<use xlink:href="#p" x="168" y="240"/>
<use xlink:href="#p" x="168" y="256"/>
<use xlink:href="#p" x="168" y="264"/>
<use xlink:href="#p" x="168" y="280"/>
<use xlink:href="#p" x="168" y="288"/>
<use xlink:href="#p" x="168" y="352"/>
<use xlink:href="#p" x="168" y="360"/>
<use xlink:href="#p" x="168" y="368"/>
<use xlink:href="#p" x="176" y="40"/>
<use xlink:href="#p" x="176" y="56"/>
<use xlink:href="#p" x="176" y="64"/>
<use xlink:href="#p" x="176" y="72"/>
<use xlink:href="#p" x="176" y="80"/>
<use xlink:href="#p" x="176" y="104"/>
<use xlink:href="#p" x="176" y="120"/>
<use xlink:href="#p" x="176" y="128"/>
<use xlink:href="#p" x="176" y="136"/>
<use xlink:href="#p" x="176" y="144"/>
<use xlink:href="#p" x="176" y="152"/>
<use xlink:href="#p" x="176" y="160"/>
<use xlink:href="#p" x="176" y="168"/>
<use xlink:href="#p" x="176" y="184"/>
<use xlink:href="#p" x="176" y="200"/>
<use xlink:href="#p" x="176" y="208"/>
<use xlink:href="#p" x="176" y="232"/>
<use xlink:href="#p" x="176" y="256"/>
<use xlink:href="#p" x="176" y="264"/>
<use xlink:href="#p" x="176" y="304"/>
<use xlink:href="#p" x="176" y="312"/>
<use xlink:href="#p" x="176" y="320"/>
<use xlink:href="#p" x="176" y="352"/>
<use xlink:href="#p" x="176" y="368"/>
<use xlink:href="#p" x="176" y="376"/>
<use xlink:href="#p" x="184" y="88"/>
<use xlink:href="#p" x="184" y="96"/>
<use xlink:href="#p" x="184" y="112"/>
<use xlink:href="#p" x="184" y="120"/>
<use xlink:href="#p" x="184" y="144"/>
<use xlink:href="#p" x="184" y="152"/>
<use xlink:href="#p" x="184" y="160"/>
<use xlink:href="#p" x="184" y="168"/>
<use xlink:href="#p" x="184" y="208"/>
<use xlink:href="#p" x="184" y="232"/>
<use xlink:href="#p" x="184" y="248"/>
<use xlink:href="#p" x="184" y="264"/>
<use xlink:href="#p" x="184" y="272"/>
<use xlink:href="#p" x="184" y="280"/>
<use xlink:href="#p" x="184" y="312"/>
<use xlink:href="#p" x="184" y="320"/>
<use xlink:href="#p" x="184" y="328"/>
<use xlink:href="#p" x="184" y="336"/>
<use xlink:href="#p" x="184" y="344"/>
<use xlink:href="#p" x="184" y="368"/>
<use xlink:href="#p" x="184" y="384"/>
<use xlink:href="#p" x="192" y="56"/>
<use xlink:href="#p" x="192" y="64"/>
<use xlink:href="#p" x="192" y="72"/>
<use xlink:href="#p" x="192" y="80"/>
<use xlink:href="#p" x="192" y="88"/>
<use xlink:href="#p" x="192" y="96"/>
<use xlink:href="#p" x="192" y="112"/>
<use xlink:href="#p" x="192" y="160"/>
<use xlink:href="#p" x="192" y="168"/>
<use xlink:href="#p" x="192" y="192"/>
<use xlink:href="#p" x="192" y="200"/>
<use xlink:href="#p" x="192" y="208"/>
<use xlink:href="#p" x="192" y="216"/>
<use xlink:href="#p" x="192" y="224"/>
<use xlink:href="#p" x="192" y="232"/>
<use xlink:href="#p" x="192" y="256"/>
<use xlink:href="#p" x="192" y="264"/>
<use xlink:href="#p" x="192" y="272"/>
<use xlink:href="#p" x="192" y="288"/>
<use xlink:href="#p" x="192" y="304"/>
<use xlink:href="#p" x="192" y="312"/>
<use xlink:href="#p" x="192" y="320"/>
<use xlink:href="#p" x="192" y="328"/>
<use xlink:href="#p" x="192" y="336"/>
<use xlink:href="#p" x="192" y="344"/>
<use xlink:href="#p" x="192" y="352"/>
<use xlink:href="#p" x="192" y="368"/>
<use xlink:href="#p" x="192" y="376"/>
<use xlink:href="#p" x="192" y="384"/>
<use xlink:href="#p" x="200" y="56"/>
<use xlink:href="#p" x="200" y="64"/>
<use xlink:href="#p" x="200" y="96"/>
<use xlink:href="#p" x="200" y="104"/>
<use xlink:href="#p" x="200" y="112"/>
<use xlink:href="#p" x="200" y="144"/>
<use xlink:href="#p" x="200" y="168"/>
<use xlink:href="#p" x="200" y="192"/>
<use xlink:href="#p" x="200" y="224"/>
<use xlink:href="#p" x="200" y="240"/>
<use xlink:href="#p" x="200" y="248"/>
<use xlink:href="#p" x="200" y="256"/>
<use xlink:href="#p" x="200" y="264"/>
<use xlink:href="#p" x="200" y="272"/>
<use xlink:href="#p" x="200" y="296"/>
<use xlink:href="#p" x="200" y="304"/>
<use xlink:href="#p" x="200" y="320"/>
<use xlink:href="#p" x="200" y="352"/>
<use xlink:href="#p" x="200" y="368"/>
<use xlink:href="#p" x="208" y="32"/>
<use xlink:href="#p" x="208" y="64"/>
<use xlink:href="#p" x="208" y="80"/>
<use xlink:href="#p" x="208" y="96"/>
<use xlink:href="#p" x="208" y="104"/>
<use xlink:href="#p" x="208" y="112"/>
<use xlink:href="#p" x="208" y="128"/>
<use xlink:href="#p" x="208" y="152"/>
<use xlink:href="#p" x="208" y="192"/>
<use xlink:href="#p" x="208" y="208"/>
<use xlink:href="#p" x="208" y="224"/>
<use xlink:href="#p" x="208" y="256"/>
<use xlink:href="#p" x="208" y="296"/>
<use xlink:href="#p" x="208" y="304"/>
<use xlink:href="#p" x="208" y="312"/>
<use xlink:href="#p" x="208" y="320"/>
<use xlink:href="#p" x="208" y="336"/>
<use xlink:href="#p" x="208" y="352"/>
<use xlink:href="#p" x="208" y="360"/>
<use xlink:href="#p" x="208" y="376"/>
<use xlink:href="#p" x="216" y="48"/>
<use xlink:href="#p" x="216" y="56"/>
<use xlink:href="#p" x="216" y="64"/>
<use xlink:href="#p" x="216" y="96"/>
<use xlink:href="#p" x="216" y="104"/>
<use xlink:href="#p" x="216" y="112"/>
<use xlink:href="#p" x="216" y="136"/>
<use xlink:href="#p" x="216" y="144"/>
<use xlink:href="#p" x="216" y="184"/>
<use xlink:href="#p" x="216" y="192"/>
<use xlink:href="#p" x="216" y="224"/>
<use xlink:href="#p" x="216" y="240"/>
<use xlink:href="#p" x="216" y="248"/>
<use xlink:href="#p" x="216" y="256"/>
<use xlink:href="#p" x="216" y="272"/>
<use xlink:href="#p" x="216" y="280"/>
<use xlink:href="#p" x="216" y="304"/>
<use xlink:href="#p" x="216" y="312"/>
<use xlink:href="#p" x="216" y="320"/>
<use xlink:href="#p" x="216" y="352"/>
<use xlink:href="#p" x="216" y="360"/>
<use xlink:href="#p" x="216" y="368"/>
<use xlink:href="#p" x="224" y="40"/>
<use xlink:href="#p" x="224" y="48"/>
<use xlink:href="#p" x="224" y="56"/>
<use xlink:href="#p" x="224" y="64"/>
<use xlink:href="#p" x="224" y="72"/>
<use xlink:href="#p" x="224" y="80"/>
<use xlink:href="#p" x="224" y="88"/>
<use xlink:href="#p" x="224" y="96"/>
<use xlink:href="#p" x="224" y="112"/>
<use xlink:href="#p" x="224" y="120"/>
<use xlink:href="#p" x="224" y="128"/>
<use xlink:href="#p" x="224" y="144"/>
<use xlink:href="#p" x="224" y="152"/>
<use xlink:href="#p" x="224" y="192"/>
<use xlink:href="#p" x="224" y="200"/>
<use xlink:href="#p" x="224" y="208"/>
<use xlink:href="#p" x="224" y="216"/>
<use xlink:href="#p" x="224" y="224"/>
<use xlink:href="#p" x="224" y="232"/>
<use xlink:href="#p" x="224" y="256"/>
<use xlink:href="#p" x="224" y="264"/>
<use xlink:href="#p" x="224" y="272"/>
<use xlink:href="#p" x="224" y="296"/>
<use xlink:href="#p" x="224" y="312"/>
<use xlink:href="#p" x="224" y="320"/>
<use xlink:href="#p" x="224" y="328"/>
<use xlink:href="#p" x="224" y="336"/>
<use xlink:href="#p" x="224" y="344"/>
<use xlink:href="#p" x="224" y="352"/>
<use xlink:href="#p" x="224" y="360"/>
<use xlink:href="#p" x="224" y="368"/>
<use xlink:href="#p" x="224" y="384"/>
<use xlink:href="#p" x="232" y="32"/>
<use xlink:href="#p" x="232" y="48"/>
<use xlink:href="#p" x="232" y="56"/>
<use xlink:href="#p" x="232" y="72"/>
<use xlink:href="#p" x="232" y="128"/>
<use xlink:href="#p" x="232" y="144"/>
<use xlink:href="#p" x="232" y="152"/>
<use xlink:href="#p" x="232" y="168"/>
<use xlink:href="#p" x="232" y="176"/>
<use xlink:href="#p" x="232" y="184"/>
<use xlink:href="#p" x="232" y="200"/>
<use xlink:href="#p" x="232" y="208"/>
<use xlink:href="#p" x="232" y="224"/>
<use xlink:href="#p" x="232" y="232"/>
<use xlink:href="#p" x="232" y="248"/>
<use xlink:href="#p" x="232" y="280"/>
<use xlink:href="#p" x="232" y="288"/>
<use xlink:href="#p" x="232" y="296"/>
<use xlink:href="#p" x="232" y="304"/>
<use xlink:href="#p" x="232" y="312"/>
<use xlink:href="#p" x="232" y="320"/>
<use xlink:href="#p" x="232" y="344"/>
<use xlink:href="#p" x="232" y="352"/>
<use xlink:href="#p" x="232" y="368"/>
<use xlink:href="#p" x="240" y="40"/>
<use xlink:href="#p" x="240" y="56"/>
<use xlink:href="#p" x="240" y="64"/>
<use xlink:href="#p" x="240" y="72"/>
<use xlink:href="#p" x="240" y="80"/>
<use xlink:href="#p" x="240" y="96"/>
<use xlink:href="#p" x="240" y="104"/>
<use xlink:href="#p" x="240" y="120"/>
<use xlink:href="#p" x="240" y="144"/>
<use xlink:href="#p" x="240" y="152"/>
<use xlink:href="#p" x="240" y="160"/>
<use xlink:href="#p" x="240" y="168"/>
<use xlink:href="#p" x="240" y="176"/>
<use xlink:href="#p" x="240" y="200"/>
<use xlink:href="#p" x="240" y="240"/>
<use xlink:href="#p" x="240" y="248"/>
<use xlink:href="#p" x="240" y="256"/>
<use xlink:href="#p" x="240" y="280"/>
<use xlink:href="#p" x="240" y="288"/>
<use xlink:href="#p" x="240" y="296"/>
<use xlink:href="#p" x="240" y="336"/>
<use xlink:href="#p" x="240" y="368"/>
<use xlink:href="#p" x="240" y="384"/>
<use xlink:href="#p" x="248" y="48"/>
<use xlink:href="#p" x="248" y="56"/>
<use xlink:href="#p" x="248" y="104"/>
<use xlink:href="#p" x="248" y="112"/>
<use xlink:href="#p" x="248" y="120"/>
<use xlink:href="#p" x="248" y="136"/>
<use xlink:href="#p" x="248" y="168"/>
<use xlink:href="#p" x="248" y="176"/>
<use xlink:href="#p" x="248" y="192"/>
<use xlink:href="#p" x="248" y="200"/>
<use xlink:href="#p" x="248" y="208"/>
<use xlink:href="#p" x="248" y="232"/>
<use xlink:href="#p" x="248" y="248"/>
<use xlink:href="#p" x="248" y="256"/>
<use xlink:href="#p" x="248" y="264"/>
<use xlink:href="#p" x="248" y="272"/>
<use xlink:href="#p" x="248" y="280"/>
<use xlink:href="#p" x="248" y="296"/>
<use xlink:href="#p" x="248" y="304"/>
<use xlink:href="#p" x="248" y="328"/>
<use xlink:href="#p" x="248" y="344"/>
<use xlink:href="#p" x="248" y="352"/>
<use xlink:href="#p" x="248" y="368"/>
<use xlink:href="#p" x="256" y="48"/>
<use xlink:href="#p" x="256" y="72"/>
<use xlink:href="#p" x="256" y="80"/>
<use xlink:href="#p" x="256" y="88"/>
<use xlink:href="#p" x="256" y="96"/>
<use xlink:href="#p" x="256" y="104"/>
<use xlink:href="#p" x="256" y="112"/>
<use xlink:href="#p" x="256" y="120"/>
<use xlink:href="#p" x="256" y="136"/>
<use xlink:href="#p" x="256" y="144"/>
<use xlink:href="#p" x="256" y="152"/>
<use xlink:href="#p" x="256" y="176"/>
<use xlink:href="#p" x="256" y="208"/>
<use xlink:href="#p" x="256" y="224"/>
<use xlink:href="#p" x="256" y="232"/>
<use xlink:href="#p" x="256" y="288"/>
<use xlink:href="#p" x="256" y="304"/>
<use xlink:href="#p" x="256" y="312"/>
<use xlink:href="#p" x="256" y="344"/>
<use xlink:href="#p" x="256" y="360"/>
<use xlink:href="#p" x="256" y="368"/>
<use xlink:href="#p" x="256" y="376"/>
<use xlink:href="#p" x="256" y="384"/>
<use xlink:href="#p" x="264" y="32"/>
<use xlink:href="#p" x="264" y="40"/>
<use xlink:href="#p" x="264" y="64"/>
<use xlink:href="#p" x="264" y="88"/>
<use xlink:href="#p" x="264" y="120"/>
<use xlink:href="#p" x="264" y="128"/>
<use xlink:href="#p" x="264" y="144"/>
<use xlink:href="#p" x="264" y="160"/>
<use xlink:href="#p" x="264" y="200"/>
<use xlink:href="#p" x="264" y="224"/>
<use xlink:href="#p" x="264" y="264"/>
<use xlink:href="#p" x="264" y="272"/>
<use xlink:href="#p" x="264" y="288"/>
<use xlink:href="#p" x="264" y="304"/>
<use xlink:href="#p" x="264" y="344"/>
<use xlink:href="#p" x="264" y="352"/>
<use xlink:href="#p" x="264" y="360"/>
<use xlink:href="#p" x="264" y="384"/>
<use xlink:href="#p" x="272" y="32"/>
<use xlink:href="#p" x="272" y="40"/>
<use xlink:href="#p" x="272" y="48"/>
<use xlink:href="#p" x="272" y="64"/>
<use xlink:href="#p" x="272" y="72"/>
<use xlink:href="#p" x="272" y="80"/>
<use xlink:href="#p" x="272" y="88"/>
<use xlink:href="#p" x="272" y="96"/>
<use xlink:href="#p" x="272" y="152"/>
<use xlink:href="#p" x="272" y="160"/>
<use xlink:href="#p" x="272" y="184"/>
<use xlink:href="#p" x="272" y="208"/>
<use xlink:href="#p" x="272" y="224"/>
<use xlink:href="#p" x="272" y="232"/>
<use xlink:href="#p" x="272" y="248"/>
<use xlink:href="#p" x="272" y="256"/>
<use xlink:href="#p" x="272" y="264"/>
<use xlink:href="#p" x="272" y="272"/>
<use xlink:href="#p" x="272" y="288"/>
<use xlink:href="#p" x="272" y="312"/>
<use xlink:href="#p" x="272" y="328"/>
<use xlink:href="#p" x="272" y="352"/>
<use xlink:href="#p" x="272" y="368"/>
<use xlink:href="#p" x="272" y="376"/>
<use xlink:href="#p" x="272" y="384"/>
<use xlink:href="#p" x="280" y="32"/>
<use xlink:href="#p" x="280" y="88"/>
<use xlink:href="#p" x="280" y="96"/>
<use xlink:href="#p" x="280" y="104"/>
<use xlink:href="#p" x="280" y="112"/>
<use xlink:href="#p" x="280" y="120"/>
<use xlink:href="#p" x="280" y="128"/>
<use xlink:href="#p" x="280" y="184"/>
<use xlink:href="#p" x="280" y="192"/>
<use xlink:href="#p" x="280" y="208"/>
<use xlink:href="#p" x="280" y="216"/>
<use xlink:href="#p" x="280" y="224"/>
<use xlink:href="#p" x="280" y="232"/>
<use xlink:href="#p" x="280" y="256"/>
<use xlink:href="#p" x="280" y="264"/>
<use xlink:href="#p" x="280" y="280"/>
<use xlink:href="#p" x="280" y="288"/>
<use xlink:href="#p" x="280" y="320"/>
<use xlink:href="#p" x="280" y="344"/>
<use xlink:href="#p" x="280" y="360"/>
<use xlink:href="#p" x="280" y="368"/>
<use xlink:href="#p" x="280" y="384"/>
<use xlink:href="#p" x="288" y="48"/>
<use xlink:href="#p" x="288" y="80"/>
<use xlink:href="#p" x="288" y="88"/>
<use xlink:href="#p" x="288" y="112"/>
<use xlink:href="#p" x="288" y="128"/>
<use xlink:href="#p" x="288" y="136"/>
<use xlink:href="#p" x="288" y="152"/>
<use xlink:href="#p" x="288" y="160"/>
<use xlink:href="#p" x="288" y="168"/>
<use xlink:href="#p" x="288" y="176"/>
<use xlink:href="#p" x="288" y="184"/>
<use xlink:href="#p" x="288" y="208"/>
<use xlink:href="#p" x="288" y="224"/>
<use xlink:href="#p" x="288" y="232"/>
<use xlink:href="#p" x="288" y="248"/>
<use xlink:href="#p" x="288" y="256"/>
<use xlink:href="#p" x="288" y="264"/>
<use xlink:href="#p" x="288" y="272"/>
<use xlink:href="#p" x="288" y="280"/>
<use xlink:href="#p" x="288" y="296"/>
<use xlink:href="#p" x="288" y="320"/>
<use xlink:href="#p" x="288" y="328"/>
<use xlink:href="#p" x="288" y="344"/>
<use xlink:href="#p" x="288" y="352"/>
<use xlink:href="#p" x="288" y="360"/>
<use xlink:href="#p" x="288" y="368"/>
<use xlink:href="#p" x="288" y="376"/>
<use xlink:href="#p" x="296" y="40"/>
<use xlink:href="#p" x="296" y="64"/>
<use xlink:href="#p" x="296" y="96"/>
<use xlink:href="#p" x="296" y="104"/>
<use xlink:href="#p" x="296" y="152"/>
<use xlink:href="#p" x="296" y="160"/>
<use xlink:href="#p" x="296" y="176"/>
<use xlink:href="#p" x="296" y="200"/>
<use xlink:href="#p" x="296" y="208"/>
<use xlink:href="#p" x="296" y="216"/>
<use xlink:href="#p" x="296" y="232"/>
<use xlink:href="#p" x="296" y="256"/>
<use xlink:href="#p" x="296" y="288"/>
<use xlink:href="#p" x="296" y="304"/>
<use xlink:href="#p" x="296" y="344"/>
<use xlink:href="#p" x="296" y="360"/>
<use xlink:href="#p" x="296" y="368"/>
<use xlink:href="#p" x="304" y="64"/>
<use xlink:href="#p" x="304" y="80"/>
<use xlink:href="#p" x="304" y="112"/>
<use xlink:href="#p" x="304" y="128"/>
<use xlink:href="#p" x="304" y="136"/>
<use xlink:href="#p" x="304" y="152"/>
<use xlink:href="#p" x="304" y="208"/>
<use xlink:href="#p" x="304" y="224"/>
<use xlink:href="#p" x="304" y="232"/>
<use xlink:href="#p" x="304" y="248"/>
<use xlink:href="#p" x="304" y="256"/>
<use xlink:href="#p" x="304" y="280"/>
<use xlink:href="#p" x="304" y="288"/>
<use xlink:href="#p" x="304" y="304"/>
<use xlink:href="#p" x="304" y="320"/>
<use xlink:href="#p" x="304" y="328"/>
<use xlink:href="#p" x="312" y="40"/>
<use xlink:href="#p" x="312" y="48"/>
<use xlink:href="#p" x="312" y="56"/>
<use xlink:href="#p" x="312" y="64"/>
<use xlink:href="#p" x="312" y="88"/>
<use xlink:href="#p" x="312" y="96"/>
<use xlink:href="#p" x="312" y="104"/>
<use xlink:href="#p" x="312" y="112"/>
<use xlink:href="#p" x="312" y="120"/>
<use xlink:href="#p" x="312" y="144"/>
<use xlink:href="#p" x="312" y="160"/>
<use xlink:href="#p" x="312" y="168"/>
<use xlink:href="#p" x="312" y="176"/>
<use xlink:href="#p" x="312" y="184"/>
<use xlink:href="#p" x="312" y="192"/>
<use xlink:href="#p" x="312" y="288"/>
<use xlink:href="#p" x="312" y="296"/>
<use xlink:href="#p" x="312" y="312"/>
<use xlink:href="#p" x="312" y="352"/>
<use xlink:href="#p" x="312" y="368"/>
<use xlink:href="#p" x="320" y="32"/>
<use xlink:href="#p" x="320" y="56"/>
<use xlink:href="#p" x="320" y="64"/>
<use xlink:href="#p" x="320" y="80"/>
<use xlink:href="#p" x="320" y="112"/>
<use xlink:href="#p" x="320" y="120"/>
<use xlink:href="#p" x="320" y="152"/>
<use xlink:href="#p" x="320" y="176"/>
<use xlink:href="#p" x="320" y="192"/>
<use xlink:href="#p" x="320" y="200"/>
<use xlink:href="#p" x="320" y="208"/>
<use xlink:href="#p" x="320" y="216"/>
<use xlink:href="#p" x="320" y="224"/>
<use xlink:href="#p" x="320" y="248"/>
<use xlink:href="#p" x="320" y="272"/>
<use xlink:href="#p" x="320" y="280"/>
<use xlink:href="#p" x="320" y="296"/>
<use xlink:href="#p" x="320" y="304"/>
<use xlink:href="#p" x="320" y="312"/>
<use xlink:href="#p" x="320" y="320"/>
<use xlink:href="#p" x="320" y="328"/>
<use xlink:href="#p" x="320" y="336"/>
<use xlink:href="#p" x="320" y="344"/>
<use xlink:href="#p" x="320" y="352"/>
<use xlink:href="#p" x="320" y="360"/>
<use xlink:href="#p" x="320" y="368"/>
<use xlink:href="#p" x="320" y="376"/>
<use xlink:href="#p" x="320" y="384"/>
<use xlink:href="#p" x="328" y="120"/>
<use xlink:href="#p" x="328" y="136"/>
<use xlink:href="#p" x="328" y="144"/>
<use xlink:href="#p" x="328" y="160"/>
<use xlink:href="#p" x="328" y="176"/>
<use xlink:href="#p" x="328" y="184"/>
<use xlink:href="#p" x="328" y="192"/>
<use xlink:href="#p" x="328" y="224"/>
<use xlink:href="#p" x="328" y="232"/>
<use xlink:href="#p" x="328" y="240"/>
<use xlink:href="#p" x="328" y="248"/>
<use xlink:href="#p" x="328" y="264"/>
<use xlink:href="#p" x="328" y="272"/>
<use xlink:href="#p" x="328" y="288"/>
<use xlink:href="#p" x="328" y="296"/>
<use xlink:href="#p" x="328" y="312"/>
<use xlink:href="#p" x="328" y="320"/>
<use xlink:href="#p" x="328" y="352"/>
<use xlink:href="#p" x="328" y="360"/>
<use xlink:href="#p" x="328" y="368"/>
<use xlink:href="#p" x="328" y="384"/>
<use xlink:href="#p" x="336" y="32"/>
<use xlink:href="#p" x="336" y="40"/>
<use xlink:href="#p" x="336" y="48"/>
<use xlink:href="#p" x="336" y="56"/>
<use xlink:href="#p" x="336" y="64"/>
<use xlink:href="#p" x="336" y="72"/>
<use xlink:href="#p" x="336" y="80"/>
<use xlink:href="#p" x="336" y="120"/>
<use xlink:href="#p" x="336" y="128"/>
<use xlink:href="#p" x="336" y="144"/>
<use xlink:href="#p" x="336" y="160"/>
<use xlink:href="#p" x="336" y="168"/>
<use xlink:href="#p" x="336" y="184"/>
<use xlink:href="#p" x="336" y="192"/>
<use xlink:href="#p" x="336" y="208"/>
<use xlink:href="#p" x="336" y="224"/>
<use xlink:href="#p" x="336" y="248"/>
<use xlink:href="#p" x="336" y="256"/>
<use xlink:href="#p" x="336" y="264"/>
<use xlink:href="#p" x="336" y="272"/>
<use xlink:href="#p" x="336" y="280"/>
<use xlink:href="#p" x="336" y="304"/>
<use xlink:href="#p" x="336" y="320"/>
<use xlink:href="#p" x="336" y="336"/>
<use xlink:href="#p" x="336" y="352"/>
<use xlink:href="#p" x="336" y="360"/>
<use xlink:href="#p" x="336" y="384"/>
<use xlink:href="#p" x="344" y="32"/>
<use xlink:href="#p" x="344" y="80"/>
<use xlink:href="#p" x="344" y="96"/>
<use xlink:href="#p" x="344" y="128"/>
<use xlink:href="#p" x="344" y="152"/>
<use xlink:href="#p" x="344" y="160"/>
<use xlink:href="#p" x="344" y="184"/>
<use xlink:href="#p" x="344" y="192"/>
<use xlink:href="#p" x="344" y="224"/>
<use xlink:href="#p" x="344" y="248"/>
<use xlink:href="#p" x="344" y="256"/>
<use xlink:href="#p" x="344" y="288"/>
<use xlink:href="#p" x="344" y="304"/>
<use xlink:href="#p" x="344" y="320"/>
<use xlink:href="#p" x="344" y="352"/>
<use xlink:href="#p" x="344" y="368"/>
<use xlink:href="#p" x="352" y="32"/>
<use xlink:href="#p" x="352" y="48"/>
<use xlink:href="#p" x="352" y="56"/>
<use xlink:href="#p" x="352" y="64"/>
<use xlink:href="#p" x="352" y="80"/>
<use xlink:href="#p" x="352" y="96"/>
<use xlink:href="#p" x="352" y="104"/>
<use xlink:href="#p" x="352" y="120"/>
<use xlink:href="#p" x="352" y="128"/>
<use xlink:href="#p" x="352" y="144"/>
<use xlink:href="#p" x="352" y="152"/>
<use xlink:href="#p" x="352" y="192"/>
<use xlink:href="#p" x="352" y="200"/>
<use xlink:href="#p" x="352" y="208"/>
<use xlink:href="#p" x="352" y="216"/>
<use xlink:href="#p" x="352" y="224"/>
<use xlink:href="#p" x="352" y="232"/>
<use xlink:href="#p" x="352" y="256"/>
<use xlink:href="#p" x="352" y="272"/>
<use xlink:href="#p" x="352" y="280"/>
<use xlink:href="#p" x="352" y="304"/>
<use xlink:href="#p" x="352" y="312"/>
<use xlink:href="#p" x="352" y="320"/>
<use xlink:href="#p" x="352" y="328"/>
<use xlink:href="#p" x="352" y="336"/>
<use xlink:href="#p" x="352" y="344"/>
<use xlink:href="#p" x="352" y="352"/>
<use xlink:href="#p" x="352" y="360"/>
<use xlink:href="#p" x="352" y="368"/>
<use xlink:href="#p" x="352" y="376"/>
<use xlink:href="#p" x="360" y="32"/>
<use xlink:href="#p" x="360" y="48"/>
<use xlink:href="#p" x="360" y="56"/>
<use xlink:href="#p" x="360" y="64"/>
<use xlink:href="#p" x="360" y="80"/>
<use xlink:href="#p" x="360" y="96"/>
<use xlink:href="#p" x="360" y="104"/>
<use xlink:href="#p" x="360" y="120"/>
<use xlink:href="#p" x="360" y="136"/>
<use xlink:href="#p" x="360" y="144"/>
<use xlink:href="#p" x="360" y="160"/>
<use xlink:href="#p" x="360" y="168"/>
<use xlink:href="#p" x="360" y="176"/>
<use xlink:href="#p" x="360" y="192"/>
<use xlink:href="#p" x="360" y="200"/>
<use xlink:href="#p" x="360" y="208"/>
<use xlink:href="#p" x="360" y="216"/>
<use xlink:href="#p" x="360" y="224"/>
<use xlink:href="#p" x="360" y="232"/>
<use xlink:href="#p" x="360" y="256"/>
<use xlink:href="#p" x="360" y="288"/>
<use xlink:href="#p" x="360" y="312"/>
<use xlink:href="#p" x="360" y="320"/>
<use xlink:href="#p" x="360" y="328"/>
<use xlink:href="#p" x="360" y="352"/>
<use xlink:href="#p" x="360" y="360"/>
<use xlink:href="#p" x="368" y="32"/>
<use xlink:href="#p" x="368" y="48"/>
<use xlink:href="#p" x="368" y="56"/>
<use xlink:href="#p" x="368" y="64"/>
<use xlink:href="#p" x="368" y="80"/>
<use xlink:href="#p" x="368" y="136"/>
<use xlink:href="#p" x="368" y="144"/>
<use xlink:href="#p" x="368" y="168"/>
<use xlink:href="#p" x="368" y="200"/>
<use xlink:href="#p" x="368" y="208"/>
<use xlink:href="#p" x="368" y="264"/>
<use xlink:href="#p" x="368" y="272"/>
<use xlink:href="#p" x="368" y="304"/>
<use xlink:href="#p" x="368" y="336"/>
<use xlink:href="#p" x="368" y="368"/>
<use xlink:href="#p" x="376" y="32"/>
<use xlink:href="#p" x="376" y="80"/>
<use xlink:href="#p" x="376" y="96"/>
<use xlink:href="#p" x="376" y="128"/>
<use xlink:href="#p" x="376" y="144"/>
<use xlink:href="#p" x="376" y="152"/>
<use xlink:href="#p" x="376" y="168"/>
<use xlink:href="#p" x="376" y="176"/>
<use xlink:href="#p" x="376" y="200"/>
<use xlink:href="#p" x="376" y="216"/>
<use xlink:href="#p" x="376" y="240"/>
<use xlink:href="#p" x="376" y="264"/>
<use xlink:href="#p" x="376" y="272"/>
<use xlink:href="#p" x="376" y="288"/>
<use xlink:href="#p" x="376" y="296"/>
<use xlink:href="#p" x="376" y="336"/>
<use xlink:href="#p" x="376" y="344"/>
<use xlink:href="#p" x="376" y="352"/>
<use xlink:href="#p" x="376" y="360"/>
<use xlink:href="#p" x="376" y="368"/>
<use xlink:href="#p" x="376" y="384"/>
<use xlink:href="#p" x="384" y="32"/>
<use xlink:href="#p" x="384" y="40"/>
<use xlink:href="#p" x="384" y="48"/>
<use xlink:href="#p" x="384" y="56"/>
<use xlink:href="#p" x="384" y="64"/>
<use xlink:href="#p" x="384" y="72"/>
<use xlink:href="#p" x="384" y="80"/>
<use xlink:href="#p" x="384" y="96"/>
<use xlink:href="#p" x="384" y="104"/>
<use xlink:href="#p" x="384" y="112"/>
<use xlink:href="#p" x="384" y="128"/>
<use xlink:href="#p" x="384" y="136"/>
<use xlink:href="#p" x="384" y="176"/>
<use xlink:href="#p" x="384" y="184"/>
<use xlink:href="#p" x="384" y="200"/>
<use xlink:href="#p" x="384" y="208"/>
<use xlink:href="#p" x="384" y="216"/>
<use xlink:href="#p" x="384" y="224"/>
<use xlink:href="#p" x="384" y="232"/>
<use xlink:href="#p" x="384" y="256"/>
<use xlink:href="#p" x="384" y="272"/>
<use xlink:href="#p" x="384" y="280"/>
<use xlink:href="#p" x="384" y="288"/>
<use xlink:href="#p" x="384" y="296"/>
<use xlink:href="#p" x="384" y="304"/>
<use xlink:href="#p" x="384" y="312"/>
<use xlink:href="#p" x="384" y="320"/>
<use xlink:href="#p" x="384" y="328"/>
<use xlink:href="#p" x="384" y="360"/>
<use xlink:href="#p" x="384" y="368"/>
</g>
<g></g></svg>